<svg id="Layer_2" data-name="Layer 2" xmlns="http://www.w3.org/2000/svg" viewBox="0 0 341.01 250.43"><defs><style>.cls-1{fill:#e55c3e;}</style></defs><path class="cls-1" d="M136.41,349.44a14.7,14.7,0,0,1-23.83,5.06,14.7,14.7,0,0,1-4.4-12.19l16.51-180.93a8.86,8.86,0,0,1,8.85-8h42.53V130.79H133.54a31.42,31.42,0,0,0-31.34,28.43L85.69,340.13a37.28,37.28,0,0,0,37.08,41.08,38,38,0,0,0,7.77-.81,37.25,37.25,0,0,0,26.82-22.52l11.87-29.56-21-8.42Z" transform="translate(-85.49 -130.79)"/><rect class="cls-1" x="66.37" y="43.41" width="24.21" height="24.15"/><path class="cls-1" d="M426.31,340.13,409.8,159.22a31.42,31.42,0,0,0-31.34-28.43H335.93v22.59h42.53a8.86,8.86,0,0,1,8.85,8l16.51,180.93a14.7,14.7,0,0,1-4.4,12.19,14.7,14.7,0,0,1-23.83-5.06L363.74,319.9l-21,8.42,11.87,29.56a37.25,37.25,0,0,0,26.82,22.52,38,38,0,0,0,7.77.81,37.28,37.28,0,0,0,37.08-41.08Z" transform="translate(-85.49 -130.79)"/><path class="cls-1" d="M313.13,173.17V130.79H198.87v42.38a25.21,25.21,0,0,0,25.18,25.18H288A25.21,25.21,0,0,0,313.13,173.17Zm-89.08,2.59a2.58,2.58,0,0,1-2.58-2.59V153.38h69.06v19.79a2.58,2.58,0,0,1-2.58,2.59h-63.9Z" transform="translate(-85.49 -130.79)"/><rect class="cls-1" x="250.43" y="43.41" width="24.21" height="24.15"/><path class="cls-1" d="M313.58,220.43a45.93,45.93,0,0,0-45.88,45.88H244.3a45.92,45.92,0,1,0-5.73,22.18h34.86a45.88,45.88,0,1,0,40.15-68.06ZM198.42,290.2a23.89,23.89,0,1,1,23.88-23.89A23.92,23.92,0,0,1,198.42,290.2Zm115.16,0a23.89,23.89,0,1,1,23.89-23.89A23.91,23.91,0,0,1,313.58,290.2Z" transform="translate(-85.49 -130.79)"/></svg>